<?xml version="1.0" standalone="no"?>
<!DOCTYPE svg PUBLIC "-//W3C//DTD SVG 20010904//EN"
 "http://www.w3.org/TR/2001/REC-SVG-20010904/DTD/svg10.dtd">
<svg version="1.0" xmlns="http://www.w3.org/2000/svg"
 width="1280.000000pt" height="902.000000pt" viewBox="0 0 1280.000000 902.000000"
 preserveAspectRatio="xMidYMid meet">
<metadata>
Created by potrace 1.15, written by Peter Selinger 2001-2017
</metadata>
<g transform="translate(0.000000,902.000000) scale(0.100000,-0.100000)"
fill="#000000" stroke="none">
<path d="M4727 8922 c-25 -54 -58 -145 -72 -203 -15 -57 -51 -168 -81 -247
-63 -164 -104 -291 -142 -442 -33 -133 -37 -334 -8 -440 13 -50 72 -186 113
-261 6 -10 -167 -116 -291 -179 -61 -31 -194 -91 -296 -134 -102 -43 -255
-107 -340 -143 -200 -84 -407 -190 -512 -262 l-83 -56 -85 -170 c-47 -94 -106
-201 -133 -237 -47 -67 -89 -106 -95 -89 -6 19 40 206 101 411 92 304 110 396
105 528 -3 89 -8 116 -30 164 -50 108 -181 207 -247 188 -42 -12 -99 -48 -110
-68 -5 -10 -16 -45 -25 -79 -23 -91 -72 -181 -186 -338 -55 -77 -119 -176
-140 -221 -36 -72 -41 -94 -51 -195 -14 -147 -37 -212 -143 -408 -124 -228
-127 -237 -125 -439 2 -194 -4 -228 -107 -591 -35 -124 -72 -264 -81 -311 -15
-75 -22 -91 -65 -145 -27 -33 -82 -126 -122 -206 -40 -81 -93 -173 -118 -205
-104 -135 -284 -280 -578 -468 -95 -60 -226 -149 -293 -199 -117 -86 -342
-206 -449 -240 l-38 -12 0 -57 c0 -32 3 -58 6 -58 14 0 228 97 359 163 456
228 808 508 1064 847 48 63 104 143 125 177 42 68 56 77 56 39 0 -42 21 -42
58 0 59 66 100 172 156 398 74 295 101 345 247 452 189 139 560 571 841 979
l76 110 46 -3 c35 -3 46 -1 46 10 0 17 -31 48 -47 48 -6 0 -16 7 -23 16 -11
12 -10 18 3 32 16 15 21 13 70 -34 28 -28 63 -58 77 -68 84 -56 109 30 41 143
-22 36 -42 81 -46 99 -7 32 -5 34 37 49 51 20 193 92 373 192 72 39 166 85
210 102 78 30 213 64 222 55 2 -2 -56 -41 -129 -86 -247 -153 -392 -269 -430
-344 -55 -109 -120 -201 -212 -301 -56 -60 -196 -218 -311 -350 -269 -309
-456 -496 -615 -613 -183 -135 -287 -221 -331 -273 -94 -113 -132 -243 -110
-377 21 -122 32 -140 67 -105 14 15 16 30 10 119 -7 97 -6 105 18 153 14 28
26 66 26 84 0 47 69 110 230 212 69 43 152 99 185 124 88 67 291 274 445 455
202 238 303 349 383 418 119 104 149 140 207 242 30 54 65 107 79 117 39 31
90 25 159 -21 33 -22 67 -40 76 -40 31 0 30 30 -3 64 -35 37 -40 56 -12 56 28
0 76 -44 91 -82 29 -72 80 -117 80 -70 0 24 -43 146 -55 154 -5 4 -46 20 -90
34 -91 30 -135 51 -135 63 0 4 48 40 108 78 59 39 184 130 277 203 214 165
366 267 475 319 128 60 130 60 130 14 0 -21 -9 -114 -20 -208 -30 -256 -23
-403 24 -493 l16 -31 -123 -124 c-105 -107 -207 -186 -239 -187 -5 0 -8 15 -8
34 0 59 -30 116 -62 116 -2 0 -4 -55 -4 -122 -1 -138 -17 -220 -64 -324 -62
-138 -153 -243 -383 -447 -88 -78 -186 -172 -218 -211 -55 -65 -58 -70 -40
-83 50 -34 70 -354 23 -353 -51 1 -72 52 -72 171 0 49 -4 89 -8 89 -5 0 -17
-6 -28 -14 -15 -11 -19 -27 -19 -73 0 -32 3 -77 7 -99 l8 -42 -93 -1 c-176 -1
-299 -49 -424 -165 -60 -56 -166 -186 -158 -194 2 -2 64 36 137 86 162 108
213 135 315 163 113 32 311 29 653 -10 359 -41 546 -54 665 -47 88 6 222 28
259 42 10 4 15 -13 19 -60 7 -72 27 -120 56 -136 48 -25 50 -11 11 94 -25 68
-21 136 8 136 10 0 33 3 53 6 l35 6 -4 -95 c-5 -104 13 -180 48 -212 20 -18
20 -17 20 31 0 27 -7 71 -15 98 -23 75 -20 130 9 163 l24 28 184 -2 c101 0
279 -8 395 -17 318 -24 640 -20 757 10 l26 6 -6 -58 c-8 -71 7 -132 43 -174
14 -17 27 -29 30 -27 2 2 -1 47 -8 99 -8 70 -8 105 1 137 11 42 12 42 48 37
20 -3 115 -13 210 -21 164 -14 262 -30 325 -54 26 -10 27 -13 21 -60 -14 -104
41 -202 135 -244 94 -42 264 -40 406 4 37 11 69 19 71 17 10 -11 -46 -99 -93
-146 -61 -61 -141 -101 -266 -134 -77 -20 -109 -21 -542 -23 -545 -3 -537 -2
-869 -101 -270 -80 -418 -103 -569 -87 l-88 9 -17 -28 c-24 -41 -70 -58 -153
-59 -86 -1 -91 3 -109 93 -8 44 -20 69 -40 90 -60 60 -88 14 -52 -87 12 -33
22 -68 22 -77 0 -18 9 -16 -250 -38 -278 -24 -565 -78 -719 -136 -36 -14 -108
-47 -161 -75 -93 -49 -97 -50 -172 -48 l-77 3 -38 -44 c-20 -25 -80 -91 -133
-146 -113 -120 -153 -184 -179 -284 l-19 -75 -21 47 c-33 72 -44 152 -37 255
6 84 28 227 43 277 11 37 -51 -19 -79 -71 -74 -136 -55 -316 63 -613 l50 -125
85 -53 c191 -121 291 -225 315 -331 l7 -33 -41 6 c-57 9 -152 58 -211 108 -42
36 -157 172 -219 258 l-17 25 5 -35 c4 -19 22 -68 42 -109 78 -162 294 -325
529 -397 47 -15 71 -31 120 -79 50 -49 74 -86 135 -207 41 -82 79 -146 84
-145 6 2 12 27 15 55 3 28 8 53 11 56 8 8 205 -39 303 -73 223 -78 360 -186
391 -309 l12 -47 54 0 c51 0 55 2 71 34 31 63 24 61 243 52 232 -10 299 -26
445 -108 113 -64 248 -195 287 -279 32 -70 40 -153 20 -208 l-14 -40 -22 47
c-54 111 -191 168 -356 147 -174 -22 -310 -119 -339 -242 -6 -27 -9 -28 -64
-28 -31 0 -127 -11 -212 -24 -85 -12 -156 -19 -158 -15 -2 5 6 56 18 114 12
58 20 111 17 118 -2 7 -13 1 -30 -15 -17 -17 -29 -45 -38 -87 -6 -34 -19 -72
-29 -83 -16 -20 -17 -20 -231 72 -118 50 -261 114 -319 140 -67 31 -131 53
-175 60 -144 23 -382 86 -790 210 -500 152 -860 201 -1070 145 -33 -9 -139
-54 -236 -100 -285 -136 -533 -215 -1149 -365 -118 -29 -309 -76 -425 -105
l-210 -52 -3 -41 -3 -40 93 29 c51 16 235 61 408 100 756 168 1077 267 1419
437 l134 67 176 0 c194 0 270 -13 491 -80 170 -52 474 -135 745 -205 562 -144
739 -204 1024 -344 148 -73 176 -78 278 -50 47 13 144 18 523 24 256 5 474 11
485 13 99 26 142 28 202 13 34 -9 179 -34 322 -56 354 -53 480 -86 618 -161
57 -31 59 -31 163 -25 269 17 433 53 1198 261 188 51 378 90 587 120 382 55
460 80 730 238 199 116 278 147 383 147 51 0 126 -10 199 -25 65 -14 151 -28
193 -32 63 -5 85 -12 139 -44 35 -21 91 -47 126 -59 67 -22 92 -38 242 -146
239 -173 493 -328 771 -472 111 -57 212 -116 247 -146 95 -78 180 -129 386
-231 l193 -95 80 0 81 0 -30 24 c-39 32 -117 76 -405 226 -247 130 -372 203
-461 270 -30 23 -107 68 -173 101 -134 69 -297 166 -448 267 -350 234 -605
373 -714 391 -38 6 -114 18 -169 27 -311 50 -434 25 -730 -145 -256 -148 -365
-188 -610 -221 -146 -20 -427 -79 -665 -140 -814 -208 -951 -238 -1107 -247
-111 -7 -158 6 -288 80 -49 27 -92 52 -94 53 -2 2 4 10 13 19 23 24 23 177 -2
224 -32 65 -170 111 -332 111 -184 0 -349 -57 -432 -149 l-45 -50 8 48 c28
178 113 305 264 396 69 41 206 87 315 105 143 25 410 15 603 -22 53 -10 58
-13 52 -32 -17 -60 -18 -86 -1 -86 9 0 22 11 28 25 18 40 42 27 48 -25 7 -60
34 -68 45 -13 11 63 56 133 110 174 92 69 166 93 442 139 188 32 265 51 324
79 l35 17 1 -49 c1 -39 6 -55 26 -74 28 -29 42 -25 52 14 3 16 48 111 100 213
51 102 101 212 110 245 13 42 43 97 105 185 155 222 210 319 257 454 26 77 45
256 26 256 -6 0 -13 -15 -17 -32 -21 -104 -50 -189 -74 -213 -14 -14 -26 -24
-28 -22 -4 4 53 228 91 356 91 308 125 483 125 654 0 119 -24 230 -67 308 -34
63 -54 52 -34 -19 20 -68 24 -109 13 -116 -23 -14 -96 125 -147 278 -62 184
-93 375 -120 731 -21 274 -22 285 -40 285 -10 0 -15 -11 -15 -35 0 -23 -5 -35
-13 -35 -17 0 -226 213 -300 307 -84 106 -216 303 -291 435 l-67 116 -92 52
c-176 100 -310 208 -397 320 -27 34 -30 42 -15 36 90 -35 177 -49 320 -50 144
-1 152 0 200 25 28 15 58 35 67 45 22 25 51 94 73 177 10 37 21 70 25 72 13 8
107 -45 154 -86 48 -42 61 -79 28 -79 -11 0 -24 13 -33 32 -19 45 -43 46 -83
6 -24 -24 -37 -49 -45 -89 -6 -30 -18 -67 -26 -82 -14 -27 -14 -28 8 -22 12 4
56 26 99 50 42 25 97 49 122 56 45 11 47 11 90 -25 61 -50 224 -226 420 -456
297 -347 508 -560 689 -696 72 -54 93 -76 116 -122 57 -114 64 -239 22 -437
-10 -49 -17 -91 -16 -93 6 -7 69 94 89 142 29 74 28 228 -4 311 -66 174 -213
343 -361 415 -34 17 -58 42 -105 108 -92 129 -220 280 -463 542 -217 234 -332
362 -328 366 1 1 67 -2 147 -7 225 -14 245 -21 171 -58 -35 -18 -51 -37 -51
-62 0 -18 49 -9 112 21 34 16 70 30 78 30 21 0 62 -29 55 -40 -3 -5 -34 -18
-69 -30 -35 -11 -72 -30 -81 -40 -18 -20 -17 -20 29 -20 27 0 71 10 106 25 33
14 67 25 76 25 9 0 58 -39 108 -87 50 -49 138 -126 195 -173 245 -200 292
-241 399 -345 290 -280 400 -525 391 -873 l-4 -131 32 31 c91 88 101 346 22
576 -16 46 -37 74 -112 152 -51 52 -151 163 -222 245 -70 83 -167 190 -214
239 -95 97 -91 102 34 40 95 -47 267 -194 352 -301 38 -49 137 -162 219 -253
175 -194 212 -238 286 -345 76 -108 130 -214 164 -318 15 -48 32 -87 37 -87 5
0 8 45 5 103 -3 92 -7 110 -35 168 -18 35 -61 105 -97 155 -69 97 -136 216
-136 241 0 9 20 51 45 94 52 91 77 175 69 231 -4 21 -9 38 -13 38 -3 0 -19
-44 -34 -97 -32 -111 -59 -160 -94 -174 -58 -22 -55 32 7 118 45 63 50 100 20
128 -17 16 -18 20 -6 27 8 4 35 38 61 76 26 37 58 76 71 87 23 20 23 22 8 64
-30 87 -37 194 -24 360 33 422 30 524 -25 687 -34 101 -37 116 -32 199 8 181
93 305 226 331 l31 6 -20 -45 c-27 -62 -36 -161 -20 -239 28 -146 115 -237
227 -238 38 0 42 -2 48 -31 4 -17 17 -54 30 -83 40 -89 41 -96 6 -96 -16 0
-37 -3 -46 -6 -24 -10 -45 -58 -45 -105 l0 -42 53 8 c101 14 91 24 99 -105 14
-262 19 -497 11 -535 -10 -44 -4 -42 -108 -29 -40 5 -53 3 -64 -10 -8 -9 -11
-19 -8 -22 10 -11 82 -24 130 -24 33 0 49 -5 54 -15 9 -25 -25 -188 -63 -303
-20 -58 -67 -185 -106 -281 -96 -242 -119 -327 -125 -482 -4 -96 -2 -145 11
-209 33 -158 114 -375 257 -683 39 -83 93 -210 121 -282 93 -242 180 -337 558
-608 96 -68 219 -163 272 -208 78 -68 112 -89 172 -112 82 -30 169 -89 317
-213 52 -44 122 -99 155 -122 32 -23 71 -51 87 -63 l27 -21 0 34 c0 29 -13 45
-103 129 -128 120 -340 268 -472 328 -78 36 -114 61 -165 110 -36 34 -162 140
-280 236 -442 356 -512 457 -737 1070 -136 373 -159 465 -150 621 8 151 27
213 185 599 109 267 132 384 133 675 0 253 -24 410 -135 890 -25 107 -56 256
-68 330 l-23 135 -45 47 c-102 105 -249 89 -381 -42 -85 -85 -103 -139 -104
-315 0 -122 4 -161 34 -300 40 -190 42 -252 17 -490 -19 -187 -18 -327 5 -397
11 -35 10 -39 -20 -73 -17 -20 -63 -83 -102 -141 -39 -58 -86 -123 -106 -145
l-35 -39 -28 20 c-16 11 -83 84 -148 163 -137 162 -164 189 -246 246 -73 50
-138 75 -253 96 -189 35 -187 34 -350 181 -124 112 -159 137 -213 158 -185 71
-369 103 -527 92 l-95 -7 -42 39 c-23 21 -76 58 -117 82 -41 24 -89 54 -106
68 l-33 24 0 112 c0 244 -53 392 -237 667 -49 74 -95 145 -102 158 -12 22 -5
31 141 180 85 86 169 179 187 208 81 129 95 228 61 433 -29 177 -24 233 36
398 26 70 50 139 55 155 l8 27 -53 0 c-52 0 -53 -1 -70 -37 -39 -87 -47 -147
-57 -408 -11 -284 -19 -337 -73 -450 -39 -83 -88 -147 -213 -280 l-93 -99 0
40 c0 21 7 75 15 118 18 93 12 146 -16 146 -12 0 -24 -11 -31 -27 l-11 -28 -9
35 c-9 34 -23 50 -42 50 -15 0 1 -200 23 -285 23 -85 109 -267 239 -502 112
-202 152 -337 152 -507 0 -97 -17 -191 -51 -294 -19 -58 -25 -66 -64 -83 -85
-38 -173 -51 -300 -47 -146 6 -200 24 -221 74 -16 38 -18 74 -5 74 4 0 25 -13
46 -30 22 -18 50 -30 66 -30 l29 0 -41 37 c-97 88 -168 228 -233 464 l-16 57
-40 -10 c-35 -9 -46 -7 -91 16 -28 15 -53 25 -56 22 -9 -9 39 -67 80 -97 22
-16 50 -29 63 -29 25 0 27 -5 59 -142 28 -124 56 -302 86 -563 48 -417 76
-584 124 -743 48 -161 71 -207 248 -495 36 -59 80 -144 97 -188 27 -70 31 -97
36 -212 7 -142 24 -231 79 -386 59 -171 83 -226 236 -558 200 -435 251 -564
308 -788 18 -70 50 -263 51 -304 0 -26 -10 -4 -25 52 -22 86 -153 333 -208
395 -26 28 -85 29 -189 3 -153 -39 -236 -102 -264 -199 -19 -64 -14 -126 20
-277 13 -55 26 -120 29 -145 5 -42 5 -44 -10 -25 -33 43 -134 267 -178 395
-25 74 -80 254 -121 400 -135 474 -202 678 -262 796 l-20 40 83 16 c106 20
183 59 254 128 59 58 120 160 141 240 20 74 14 218 -13 292 l-22 63 -58 3
c-58 3 -71 14 -45 40 16 16 11 15 -54 -7 -56 -19 -98 -25 -153 -22 -27 1 -28
3 -12 15 9 7 36 16 58 20 47 8 79 22 79 36 0 17 -43 11 -205 -30 -166 -42
-242 -49 -321 -29 -37 9 -48 18 -63 48 -41 80 -94 221 -196 521 -142 419 -206
566 -314 720 -82 118 -178 207 -294 274 -73 43 -100 21 -52 -44 14 -19 25 -37
25 -41 0 -3 -26 -16 -58 -28 -172 -62 -313 -213 -395 -421 -66 -166 -104 -374
-138 -753 -12 -133 -22 -243 -23 -243 0 -1 -89 5 -196 13 -286 21 -508 10
-643 -34 -27 -8 -50 -13 -51 -12 -12 16 24 268 69 493 29 149 59 309 64 356
25 193 8 597 -37 900 -11 78 -16 177 -16 310 0 202 21 365 75 600 35 150 97
472 110 570 7 52 13 158 13 236 1 139 1 141 -27 177 -15 20 -32 37 -36 37 -5
0 -10 -40 -13 -88 -5 -87 -20 -138 -38 -127 -9 5 -18 34 -34 106 -7 30 -48 53
-65 36 -22 -22 -12 -81 27 -148 63 -108 72 -149 61 -276 -8 -98 -37 -205 -106
-397 -35 -95 -49 -124 -54 -110 -36 93 -93 295 -102 365 -14 110 3 202 78 424
41 124 246 663 305 803 9 21 8 22 -44 22 l-53 0 -46 -98z m6204 -1655 c3 -73
2 -136 -2 -140 -10 -12 -81 -36 -94 -31 -18 8 -66 189 -63 241 l3 48 60 21
c86 30 89 25 96 -139z m-8271 -70 c0 -113 -44 -227 -88 -227 -20 0 -62 39 -62
57 0 8 20 53 44 101 25 48 48 99 51 115 5 20 13 27 31 27 23 0 24 -3 24 -73z
m134 -27 c14 -17 29 -47 33 -68 12 -56 9 -170 -6 -230 -13 -53 -14 -54 -46
-48 -37 7 -55 -8 -58 -50 -2 -32 22 -45 30 -15 3 12 12 21 20 21 24 0 9 -23
-31 -50 l-38 -24 27 -9 c23 -8 25 -13 19 -41 -15 -70 -55 -184 -69 -196 -10
-9 -15 -32 -15 -74 0 -247 -100 -517 -277 -754 -143 -190 -264 -326 -316 -355
-79 -43 -162 -131 -204 -214 -37 -75 -44 -85 -37 -55 19 84 86 545 91 628 7
115 9 118 68 118 44 -1 117 -23 110 -34 -4 -6 -32 -10 -64 -10 -65 0 -74 -5
-60 -31 15 -28 77 -41 140 -29 73 14 149 40 149 50 0 15 -39 31 -60 26 -11 -4
-29 -9 -40 -12 -25 -7 -27 23 -4 68 16 31 16 33 -6 50 -12 10 -32 18 -45 18
-12 0 -37 3 -55 6 -37 8 -38 1 19 134 41 98 95 293 107 388 7 55 18 72 37 53
20 -20 73 -12 113 18 83 62 93 74 83 99 -9 22 -64 53 -122 68 -25 6 -28 4 -25
-12 2 -10 14 -24 26 -30 34 -17 8 -29 -29 -14 -16 7 -29 16 -29 20 0 4 15 28
33 54 17 25 59 84 92 130 l60 85 63 0 c42 1 77 8 107 22 85 40 154 152 163
266 2 35 8 63 12 63 5 0 20 -14 34 -30z m8154 -92 c7 -7 12 -25 12 -40 0 -28
0 -28 -30 -13 -16 9 -30 17 -30 19 0 3 -3 11 -6 19 -5 14 3 19 37 26 3 0 10
-4 17 -11z m-6293 -1123 c-1 -338 -1 -341 -32 -510 -52 -278 -83 -530 -83
-672 0 -57 -2 -63 -22 -68 -137 -31 -412 -43 -583 -26 -66 7 -164 23 -218 37
-54 13 -99 24 -101 24 -12 0 -29 118 -29 195 0 161 48 243 230 391 256 207
335 314 472 639 36 85 48 104 79 122 20 12 86 65 146 118 62 55 115 95 125 93
14 -3 16 -37 16 -343z m2840 122 c39 -31 106 -85 150 -121 44 -36 106 -80 139
-98 75 -42 78 -46 138 -153 137 -246 359 -539 540 -710 l95 -90 7 -171 c20
-508 110 -810 304 -1029 l45 -50 -6 -115 c-6 -135 -24 -209 -102 -420 -102
-273 -108 -302 -110 -487 l-2 -162 -54 -83 -54 -82 -6 230 c-6 247 -15 297
-74 434 -15 36 -49 119 -75 185 -26 66 -70 172 -98 235 -28 63 -64 149 -80
190 -17 41 -58 136 -92 210 -179 390 -237 573 -258 820 -12 137 -29 178 -163
401 -177 294 -206 362 -234 559 -13 93 -79 457 -101 559 -4 19 -2 22 8 14 7
-5 45 -35 83 -66z m-1218 0 c16 -10 136 -260 197 -409 31 -75 98 -246 150
-380 75 -193 157 -394 212 -514 3 -7 -37 -9 -133 -6 -76 2 -252 -3 -392 -12
-139 -9 -324 -16 -410 -16 -150 1 -337 13 -348 24 -7 7 30 298 72 574 47 304
93 438 199 579 75 99 163 155 268 171 52 7 166 1 185 -11z m4123 -565 c0 -15
-59 -92 -70 -92 -19 0 -10 22 23 60 32 38 47 48 47 32z m-3222 -919 c5 -73
-47 -155 -77 -119 -15 18 -17 43 -8 109 l9 58 36 -3 c36 -3 37 -5 40 -45z
m319 31 l172 -7 15 -45 c9 -25 16 -61 16 -79 0 -32 -4 -36 -62 -63 -100 -47
-181 -64 -293 -64 -100 0 -175 19 -175 43 0 6 16 49 35 95 19 47 35 93 35 104
0 28 10 34 50 28 19 -3 112 -8 207 -12z m-5828 -153 c-20 -48 -44 -79 -54 -69
-2 2 4 20 15 39 11 19 28 50 37 69 25 54 27 18 2 -39z m5548 -589 c69 -125
138 -339 233 -722 106 -427 134 -515 218 -688 90 -189 216 -337 336 -395 129
-63 240 -54 375 30 29 19 55 32 58 29 3 -3 0 -33 -6 -67 -37 -212 -178 -303
-657 -423 -215 -54 -342 -111 -433 -192 l-49 -44 -76 20 c-136 34 -284 52
-446 52 -410 -1 -700 -125 -799 -342 l-27 -61 -49 73 c-132 192 -333 338 -550
399 -69 19 -110 23 -289 25 -285 5 -280 3 -541 167 -242 152 -364 204 -515
222 l-56 7 -41 66 c-59 96 -126 159 -189 179 l-51 16 -6 58 c-14 129 -85 225
-248 335 -178 120 -223 206 -184 354 31 117 124 263 222 349 60 54 85 67 148
76 72 10 177 39 370 101 170 56 328 97 418 109 l47 6 0 -53 c0 -57 -18 -157
-74 -418 -58 -270 -70 -363 -70 -510 2 -367 148 -510 507 -498 103 3 105 4
162 43 66 45 92 82 129 183 37 104 63 242 81 437 21 235 29 281 95 600 32 154
61 296 64 316 l6 36 113 7 c146 9 311 34 583 90 354 72 425 79 749 73 154 -3
305 -2 335 2 30 5 60 9 65 10 6 0 25 -25 42 -57z m-1981 -165 c3 -8 -4 -37
-15 -65 -53 -134 -88 -321 -131 -697 -32 -285 -71 -510 -100 -575 -9 -22 -10
-20 -6 15 47 385 24 520 -99 587 -102 55 -191 46 -273 -27 -104 -94 -173 -288
-173 -490 0 -82 -2 -88 -15 -70 -8 11 -24 51 -36 89 -30 100 -21 204 37 431
44 172 46 189 55 385 5 113 12 231 16 264 6 57 7 59 48 77 55 24 201 49 286
49 93 0 309 18 345 29 43 13 55 13 61 -2z m-366 -813 c37 -21 58 -49 47 -61
-14 -13 -137 -16 -183 -3 -25 7 -59 27 -77 44 l-32 30 35 7 c63 13 175 4 210
-17z m3290 4 c0 -74 -130 -158 -219 -142 -51 9 -53 12 -36 44 21 40 61 66 146
94 96 31 109 32 109 4z m75 -15 c45 -48 95 -130 152 -249 77 -160 82 -221 23
-287 -50 -57 -173 -103 -341 -128 -68 -10 -83 -9 -95 3 -8 7 -32 74 -55 148
-34 114 -41 150 -42 230 l-2 95 75 6 c74 5 141 30 184 68 25 22 56 85 56 116
0 32 13 32 45 -2z m-3526 -82 c45 -15 90 -21 148 -21 l83 0 0 -102 c0 -126
-13 -215 -42 -304 l-22 -67 -85 7 c-69 5 -305 56 -318 69 -5 5 62 241 95 337
43 124 42 121 60 111 10 -5 46 -18 81 -30z m3781 -470 c0 -19 -15 -47 -46 -84
-58 -71 -150 -113 -271 -123 -78 -6 -183 8 -183 26 0 4 28 10 63 13 156 15
314 77 388 153 24 24 44 44 46 44 2 0 3 -13 3 -29z m-3893 -37 c90 -28 137
-37 196 -38 l78 -1 -25 -22 c-82 -70 -295 -38 -385 59 -47 49 -20 50 136 2z
m1058 -1329 c86 -37 140 -98 133 -151 l-3 -25 -270 0 -270 1 0 49 c1 39 6 56
25 77 26 27 66 51 110 65 43 14 230 3 275 -16z m933 -48 c46 -13 91 -32 99
-40 14 -14 12 -20 -25 -62 -23 -26 -47 -63 -54 -81 -13 -37 -15 -38 -73 -24
-49 11 -203 33 -390 56 -77 9 -141 18 -143 19 -7 6 29 65 51 86 65 62 137 79
312 75 114 -3 156 -8 223 -29z m126 -123 c16 -42 -15 -114 -49 -114 -24 0 -24
28 2 79 28 54 37 61 47 35z"/>
<path d="M4810 3645 c0 -25 33 -38 113 -45 45 -4 84 -6 85 -5 2 2 1 13 -3 24
-4 13 -20 24 -46 31 -52 14 -149 11 -149 -5z"/>
<path d="M4690 3564 c0 -19 24 -43 57 -57 36 -16 205 -60 207 -55 7 14 26 77
26 85 0 8 -12 8 -38 1 -30 -7 -56 -5 -119 11 -80 21 -133 27 -133 15z"/>
<path d="M4641 3412 c-21 -15 -6 -28 46 -43 72 -20 157 -18 182 5 29 27 26 32
-16 32 -21 0 -74 3 -118 7 -47 5 -86 4 -94 -1z"/>
<path d="M7926 8678 c-13 -29 -56 -102 -95 -162 -39 -60 -71 -112 -71 -116 0
-12 41 -19 73 -13 45 9 111 80 136 147 11 31 24 88 27 126 l7 70 -27 0 c-22 0
-30 -8 -50 -52z"/>
<path d="M5206 7470 c-3 -14 -10 -77 -17 -140 -6 -63 -15 -137 -20 -164 -12
-62 -6 -68 19 -19 42 83 61 258 34 323 l-10 25 -6 -25z"/>
<path d="M7000 6933 c0 -28 169 -167 195 -161 19 4 -70 115 -112 139 -34 20
-83 32 -83 22z"/>
<path d="M6560 6912 c0 -7 -22 -37 -50 -66 -60 -63 -66 -89 -19 -76 38 11 66
35 85 72 18 34 17 40 -1 64 -9 12 -14 14 -15 6z"/>
<path d="M5075 6896 c-63 -15 -130 -53 -150 -83 -17 -25 -10 -28 28 -14 13 5
93 21 178 35 85 14 172 32 194 39 l39 14 -34 11 c-42 15 -190 14 -255 -2z"/>
<path d="M6040 6740 c-85 -45 -162 -145 -206 -266 -25 -67 -45 -237 -26 -219
5 6 32 71 58 145 27 74 65 158 84 187 35 52 93 103 117 103 19 0 58 -65 92
-156 28 -72 82 -147 96 -133 10 10 -26 125 -64 205 -35 73 -93 155 -110 154
-3 -1 -22 -9 -41 -20z"/>
<path d="M7845 6625 c-29 -15 -88 -75 -81 -83 2 -2 23 2 46 9 41 12 80 49 80
75 0 18 -8 17 -45 -1z"/>
<path d="M7826 6494 c-37 -31 -65 -58 -62 -61 3 -3 27 0 53 7 45 13 123 76
123 100 0 26 -52 5 -114 -46z"/>
<path d="M6653 6453 c2 -75 6 -97 23 -119 11 -15 25 -29 31 -31 15 -5 -14 151
-38 202 l-18 40 2 -92z"/>
<path d="M3474 6256 c-10 -8 -17 -16 -14 -19 3 -2 46 -14 96 -26 110 -25 200
-27 232 -5 26 18 29 34 4 27 -10 -2 -60 5 -112 16 -110 25 -178 27 -206 7z"/>
<path d="M8386 6255 c-12 -9 -42 -15 -78 -15 -52 0 -58 -2 -58 -20 0 -26 41
-43 85 -34 47 8 97 41 93 61 -4 22 -19 25 -42 8z"/>
<path d="M10950 5821 c0 -29 101 -61 130 -42 12 8 12 14 4 28 -8 13 -27 19
-73 21 -37 2 -61 -1 -61 -7z"/>
<path d="M3438 5206 c-31 -25 -71 -66 -88 -91 -33 -48 -74 -149 -68 -167 6
-16 160 163 191 221 43 78 32 89 -35 37z"/>
<path d="M4859 5037 c-47 -11 -139 -58 -139 -71 0 -2 40 -1 89 2 79 4 253 -8
351 -25 l35 -5 -33 34 c-58 61 -192 90 -303 65z"/>
<path d="M7275 4910 c-52 -24 -77 -46 -109 -94 -33 -49 -33 -60 2 -52 15 4 49
31 78 63 l52 57 73 4 c72 4 104 15 93 33 -10 17 -147 10 -189 -11z"/>
<path d="M4853 4913 c-12 -2 -27 -11 -33 -18 -17 -21 18 -32 138 -44 55 -6
112 -15 127 -21 36 -14 42 -7 21 26 -35 52 -148 77 -253 57z"/>
<path d="M10554 4848 c7 -18 16 -81 20 -140 10 -166 39 -223 51 -102 13 113
-6 203 -53 257 -24 27 -32 20 -18 -15z"/>
<path d="M6516 4654 c-3 -9 -6 -41 -6 -73 0 -31 -5 -62 -12 -69 -9 -9 -9 -12
3 -12 28 0 52 38 57 90 6 62 -25 109 -42 64z"/>
<path d="M6265 4555 c4 -28 12 -61 19 -75 12 -27 61 -59 72 -47 9 9 -53 131
-78 154 -20 18 -20 17 -13 -32z"/>
<path d="M5100 4558 c0 -45 -22 -125 -53 -192 -14 -31 -22 -56 -18 -56 4 0 23
10 41 23 44 29 75 91 75 147 0 47 -21 110 -36 110 -5 0 -9 -15 -9 -32z"/>
<path d="M10621 4227 c-30 -61 -41 -134 -40 -256 l1 -106 18 40 c11 22 24 72
30 110 19 119 39 198 56 216 14 16 14 18 -5 28 -31 17 -38 14 -60 -32z"/>
<path d="M3245 3730 c11 -77 52 -148 102 -180 45 -29 100 -47 110 -37 3 3 -28
36 -68 74 -40 37 -90 95 -112 128 l-39 60 7 -45z"/>
<path d="M3715 3730 c8 -16 27 -38 43 -49 29 -20 119 -48 128 -39 3 3 0 17 -7
31 -12 27 -35 40 -121 67 l-57 18 14 -28z"/>
<path d="M7816 3670 c-27 -10 -66 -31 -86 -45 -38 -27 -96 -102 -86 -112 7 -7
159 96 210 142 44 39 34 43 -38 15z"/>
<path d="M7850 3544 c-106 -31 -156 -60 -209 -120 -23 -26 -40 -48 -38 -50 7
-8 286 141 312 167 16 16 27 29 25 28 -3 0 -43 -11 -90 -25z"/>
<path d="M7905 3421 c-68 -20 -116 -43 -134 -65 -11 -13 -9 -16 14 -22 42 -11
131 14 177 49 76 58 56 71 -57 38z"/>
<path d="M9081 3159 c0 -20 -10 -92 -22 -160 -35 -206 -109 -426 -192 -568
-21 -35 -36 -65 -34 -67 2 -2 23 13 47 33 77 66 137 181 181 348 27 99 45 336
32 400 -10 47 -11 48 -12 14z"/>
<path d="M9410 3029 c0 -4 11 -31 24 -60 60 -137 81 -329 51 -465 -33 -150
-119 -286 -224 -353 -28 -18 -51 -35 -51 -37 0 -7 65 9 94 23 47 24 114 92
147 151 103 178 118 471 33 638 -24 48 -73 116 -74 103z"/>
<path d="M4606 1040 c-3 -17 -25 -52 -49 -78 -56 -60 -74 -92 -52 -92 55 0
125 85 125 153 0 45 -16 56 -24 17z"/>
<path d="M7191 869 c-31 -102 -24 -225 16 -264 18 -19 40 -21 25 -2 -19 22
-23 88 -14 180 9 87 7 127 -8 127 -4 0 -12 -18 -19 -41z"/>
<path d="M7100 742 c-12 -52 -4 -88 24 -111 14 -12 16 -7 16 57 0 111 -19 137
-40 54z"/>
</g>
</svg>
